<svg xmlns="http://www.w3.org/2000/svg" version="1.1" xmlns:xlink="http://www.w3.org/1999/xlink" xmlns:svgjs="http://svgjs.dev/svgjs" width="2000" height="752" viewBox="0 0 2000 752"><g transform="matrix(1,0,0,1,-1.2121212121212466,-1.7566328503361888)"><svg viewBox="0 0 396 149" data-background-color="#f3eeee" preserveAspectRatio="xMidYMid meet" height="752" width="2000" xmlns="http://www.w3.org/2000/svg" xmlns:xlink="http://www.w3.org/1999/xlink"><g id="tight-bounds" transform="matrix(1,0,0,1,0.2400000000000091,0.34805624295225357)"><svg viewBox="0 0 395.52 148.3038875140955" height="148.3038875140955" width="395.52"><g><svg viewBox="0 0 544.6474960422055 204.22062345235895" height="148.3038875140955" width="395.52"><g transform="matrix(1,0,0,1,149.12749604220548,63.10713688806661)"><svg viewBox="0 0 395.52 78.00634967622572" height="78.00634967622572" width="395.52"><g id="textblocktransform"><svg viewBox="0 0 395.52 78.00634967622572" height="78.00634967622572" width="395.52" id="textblock"><g><svg viewBox="0 0 395.52 78.00634967622572" height="78.00634967622572" width="395.52"><g transform="matrix(1,0,0,1,0,0)"><svg width="395.52" viewBox="3.93 -38.84 263.89 52.050000000000004" height="78.00634967622572" data-palette-color="#763d14"><path d="M6.71 0L6.71 0Q6.81-0.85 7.19-1.61 7.57-2.37 8.14-2.94 8.72-3.52 9.45-3.85 10.18-4.17 10.99-4.17L10.99-4.17 19.95-4.17 19.95-10.11 7.15-16.48Q5.69-17.21 4.81-18.7 3.93-20.19 3.93-22.41L3.93-22.41 3.93-30.81Q3.93-32.1 4.28-33.24 4.64-34.38 5.26-35.22 5.88-36.06 6.71-36.54 7.54-37.01 8.5-37.01L8.5-37.01 22-37.01Q22.95-37.01 23.78-36.54 24.61-36.06 25.23-35.22 25.85-34.38 26.22-33.24 26.59-32.1 26.59-30.81L26.59-30.81 26.59-23.58 20.75-23.58 20.75-32.84 9.77-32.84 9.77-21.26 23-14.5Q23.63-14.18 24.15-13.62 24.66-13.06 25.02-12.32 25.39-11.57 25.59-10.67 25.78-9.77 25.78-8.79L25.78-8.79 25.78-6.15Q25.78-4.88 25.42-3.76 25.05-2.64 24.43-1.81 23.8-0.98 22.97-0.49 22.14 0 21.19 0L21.19 0 6.71 0ZM36.64-6.2L36.64-21.8 34.69-21.8 34.69-25.56 36.64-25.56 36.64-32.35 42.48-35.25 42.48-25.56 49.05-25.56 49.05-21.8 42.48-21.8 42.48-4.17 51.22-4.17Q51.12-3.32 50.74-2.55 50.36-1.78 49.78-1.22 49.19-0.66 48.46-0.33 47.73 0 46.92 0L46.92 0 41.28 0Q40.33 0 39.48-0.49 38.62-0.98 38-1.82 37.38-2.66 37.01-3.78 36.64-4.91 36.64-6.2L36.64-6.2ZM54.58-6.2L54.58-25.56 60.42-25.56 60.42-4.17 70.48-4.17 70.48-25.56 76.31-25.56 76.31-4.17 81.25-4.17Q81.15-3.32 80.77-2.55 80.39-1.78 79.82-1.22 79.24-0.66 78.51-0.33 77.78 0 76.97 0L76.97 0 76.31 0 76.31 6.96Q76.31 8.25 75.95 9.39 75.58 10.52 74.95 11.36 74.31 12.21 73.47 12.71 72.63 13.21 71.67 13.21L71.67 13.21 59.86 13.21 59.86 8.98 70.48 8.98 70.48-2.61Q69.82-1.39 68.78-0.7 67.74 0 66.57 0L66.57 0 59.22 0Q58.27 0 57.42-0.49 56.56-0.98 55.94-1.82 55.32-2.66 54.95-3.78 54.58-4.91 54.58-6.2L54.58-6.2ZM85.22-6.2L85.22-38.84 91.06-38.84 91.06-4.17 96.26-4.17Q96.11-3.2 95.71-2.42 95.31-1.64 94.73-1.1 94.16-0.56 93.44-0.28 92.72 0 91.94 0L91.94 0 89.89 0Q88.93 0 88.08-0.49 87.22-0.98 86.59-1.82 85.95-2.66 85.59-3.78 85.22-4.91 85.22-6.2L85.22-6.2ZM100.16-6.2L100.16-19.36Q100.16-20.65 100.53-21.78 100.89-22.9 101.52-23.74 102.14-24.58 102.99-25.07 103.85-25.56 104.8-25.56L104.8-25.56 117.76-25.56Q118.72-25.56 119.56-25.07 120.4-24.58 121.03-23.74 121.67-22.9 122.04-21.78 122.4-20.65 122.4-19.36L122.4-19.36 122.4-11.23 106-11.23 106-4.17 123.92-4.17Q123.82-3.32 123.44-2.55 123.06-1.78 122.49-1.22 121.91-0.66 121.18-0.33 120.45 0 119.64 0L119.64 0 104.8 0Q103.85 0 102.99-0.49 102.14-0.98 101.52-1.82 100.89-2.66 100.53-3.78 100.16-4.91 100.16-6.2L100.16-6.2ZM106-14.65L116.57-14.65 116.57-21.39 106-21.39 106-14.65ZM149.5 0L149.5 0Q149.59-0.85 149.97-1.61 150.35-2.37 150.92-2.94 151.5-3.52 152.23-3.85 152.96-4.17 153.77-4.17L153.77-4.17 162.73-4.17 162.73-10.11 149.94-16.48Q148.47-17.21 147.59-18.7 146.71-20.19 146.71-22.41L146.71-22.41 146.71-30.81Q146.71-32.1 147.07-33.24 147.42-34.38 148.04-35.22 148.67-36.06 149.5-36.54 150.33-37.01 151.28-37.01L151.28-37.01 164.78-37.01Q165.73-37.01 166.56-36.54 167.39-36.06 168.01-35.22 168.64-34.38 169-33.24 169.37-32.1 169.37-30.81L169.37-30.81 169.37-23.58 163.53-23.58 163.53-32.84 152.55-32.84 152.55-21.26 165.78-14.5Q166.42-14.18 166.93-13.62 167.44-13.06 167.81-12.32 168.17-11.57 168.37-10.67 168.56-9.77 168.56-8.79L168.56-8.79 168.56-6.15Q168.56-4.88 168.2-3.76 167.83-2.64 167.21-1.81 166.59-0.98 165.76-0.49 164.93 0 163.97 0L163.97 0 149.5 0ZM178.69 0L178.69-38.82 184.53-38.82 184.53-22.78Q185.21-24.1 186.23-24.83 187.24-25.56 188.43-25.56L188.43-25.56 195.78-25.56Q196.74-25.56 197.58-25.07 198.42-24.58 199.05-23.74 199.69-22.9 200.06-21.78 200.42-20.65 200.42-19.36L200.42-19.36 200.42-4.17 205.65-4.17Q205.55-3.32 205.17-2.55 204.79-1.78 204.23-1.22 203.67-0.66 202.94-0.33 202.2 0 201.42 0L201.42 0 199.25 0Q198.3 0 197.44-0.49 196.59-0.98 195.95-1.82 195.32-2.66 194.95-3.78 194.59-4.91 194.59-6.2L194.59-6.2 194.59-21.39 184.53-21.39 184.53 0 178.69 0ZM209.82-6.15L209.82-19.36Q209.82-20.65 210.19-21.79 210.55-22.92 211.17-23.77 211.8-24.61 212.63-25.09 213.46-25.56 214.41-25.56L214.41-25.56 234.87-25.56Q234.77-24.71 234.39-23.94 234.01-23.17 233.44-22.61 232.87-22.05 232.13-21.72 231.4-21.39 230.6-21.39L230.6-21.39 229.06-21.39Q229.52-21.04 229.97-20.51 230.42-19.97 230.78-19.26 231.13-18.55 231.34-17.71 231.55-16.87 231.55-15.89L231.55-15.89 231.55-6.15Q231.55-4.88 231.18-3.76 230.81-2.64 230.18-1.81 229.55-0.98 228.7-0.49 227.86 0 226.91 0L226.91 0 214.41 0Q213.46 0 212.63-0.49 211.8-0.98 211.17-1.81 210.55-2.64 210.19-3.76 209.82-4.88 209.82-6.15L209.82-6.15ZM215.65-4.17L225.71-4.17 225.71-21.39 215.65-21.39 215.65-4.17ZM246.75-2.73L246.78 6.96Q246.78 8.25 246.43 9.39 246.07 10.52 245.45 11.36 244.83 12.21 244 12.71 243.17 13.21 242.21 13.21L242.21 13.21 240.94 13.21 240.94-25.56 258.06-25.56Q259.01-25.56 259.84-25.07 260.67-24.58 261.31-23.74 261.94-22.9 262.31-21.78 262.67-20.65 262.67-19.36L262.67-19.36 262.67-4.17 267.82-4.17Q267.73-3.32 267.35-2.55 266.97-1.78 266.4-1.22 265.82-0.66 265.09-0.33 264.36 0 263.55 0L263.55 0 250.69 0Q249.51 0 248.49-0.74 247.46-1.49 246.75-2.73L246.75-2.73ZM246.75-4.2L256.84-4.2 256.84-21.39 246.75-21.39 246.75-4.2Z" opacity="1" transform="matrix(1,0,0,1,0,0)" fill="#763d14" class="wordmark-text-0" data-fill-palette-color="primary" id="text-0"></path></svg></g></svg></g></svg></g></svg></g><g><svg viewBox="0 0 130.71206903604082 204.22062345235895" height="204.22062345235895" width="130.71206903604082"><g><svg xmlns="http://www.w3.org/2000/svg" xmlns:xlink="http://www.w3.org/1999/xlink" version="1.1" x="0" y="0" viewBox="21.621 5.662 56.75800000000001 88.67699999999999" enable-background="new 0 0 100 100" xml:space="preserve" height="204.22062345235895" width="130.71206903604082" class="icon-icon-0" data-fill-palette-color="accent" id="icon-0"></svg></g></svg></g></svg></g><defs></defs><mask id="790464fc-39e2-43f4-99b9-abdeb8ffb9f4"><g id="SvgjsG1226"><svg viewBox="0 0 395.52 148.3038875140955" height="148.3038875140955" width="395.52"><g><svg viewBox="0 0 544.6474960422055 204.22062345235895" height="148.3038875140955" width="395.52"><g transform="matrix(1,0,0,1,149.12749604220548,63.10713688806661)"><svg viewBox="0 0 395.52 78.00634967622572" height="78.00634967622572" width="395.52"><g id="SvgjsG1225"><svg viewBox="0 0 395.52 78.00634967622572" height="78.00634967622572" width="395.52" id="SvgjsSvg1224"><g><svg viewBox="0 0 395.52 78.00634967622572" height="78.00634967622572" width="395.52"><g transform="matrix(1,0,0,1,0,0)"><svg width="395.52" viewBox="3.93 -38.84 263.89 52.050000000000004" height="78.00634967622572" data-palette-color="#763d14"><path d="M6.71 0L6.71 0Q6.81-0.85 7.19-1.61 7.57-2.37 8.14-2.94 8.72-3.52 9.45-3.85 10.18-4.17 10.99-4.17L10.99-4.17 19.95-4.17 19.95-10.11 7.15-16.48Q5.69-17.21 4.81-18.7 3.93-20.19 3.93-22.41L3.93-22.41 3.93-30.81Q3.93-32.1 4.28-33.24 4.64-34.38 5.26-35.22 5.88-36.06 6.71-36.54 7.54-37.01 8.5-37.01L8.5-37.01 22-37.01Q22.95-37.01 23.78-36.54 24.61-36.06 25.23-35.22 25.85-34.38 26.22-33.24 26.59-32.1 26.59-30.81L26.59-30.81 26.59-23.58 20.75-23.58 20.75-32.84 9.77-32.84 9.77-21.26 23-14.5Q23.63-14.18 24.15-13.62 24.66-13.06 25.02-12.32 25.39-11.57 25.59-10.67 25.78-9.77 25.78-8.79L25.78-8.79 25.78-6.15Q25.78-4.88 25.42-3.76 25.05-2.64 24.43-1.81 23.8-0.98 22.97-0.49 22.14 0 21.19 0L21.19 0 6.71 0ZM36.64-6.2L36.64-21.8 34.69-21.8 34.69-25.56 36.64-25.56 36.64-32.35 42.48-35.25 42.48-25.56 49.05-25.56 49.05-21.8 42.48-21.8 42.48-4.17 51.22-4.17Q51.12-3.32 50.74-2.55 50.36-1.78 49.78-1.22 49.19-0.66 48.46-0.33 47.73 0 46.92 0L46.92 0 41.28 0Q40.33 0 39.48-0.49 38.62-0.98 38-1.82 37.38-2.66 37.01-3.78 36.64-4.91 36.64-6.2L36.64-6.2ZM54.58-6.2L54.58-25.56 60.42-25.56 60.42-4.17 70.48-4.17 70.48-25.56 76.31-25.56 76.31-4.17 81.25-4.17Q81.15-3.32 80.77-2.55 80.39-1.78 79.82-1.22 79.24-0.66 78.51-0.33 77.78 0 76.97 0L76.97 0 76.31 0 76.31 6.96Q76.31 8.25 75.95 9.39 75.58 10.52 74.95 11.36 74.31 12.21 73.47 12.71 72.63 13.21 71.67 13.21L71.67 13.21 59.86 13.21 59.86 8.98 70.48 8.98 70.48-2.61Q69.82-1.39 68.78-0.7 67.74 0 66.57 0L66.57 0 59.22 0Q58.27 0 57.42-0.49 56.56-0.98 55.94-1.82 55.32-2.66 54.95-3.78 54.58-4.91 54.58-6.2L54.58-6.2ZM85.22-6.2L85.22-38.84 91.06-38.84 91.06-4.17 96.26-4.17Q96.11-3.2 95.71-2.42 95.31-1.64 94.73-1.1 94.16-0.56 93.44-0.28 92.72 0 91.94 0L91.94 0 89.89 0Q88.93 0 88.08-0.49 87.22-0.98 86.59-1.82 85.95-2.66 85.59-3.78 85.22-4.91 85.22-6.2L85.22-6.2ZM100.16-6.2L100.16-19.36Q100.16-20.65 100.53-21.78 100.89-22.9 101.52-23.74 102.14-24.58 102.99-25.07 103.85-25.56 104.8-25.56L104.8-25.56 117.76-25.56Q118.72-25.56 119.56-25.07 120.4-24.58 121.03-23.74 121.67-22.9 122.04-21.78 122.4-20.65 122.4-19.36L122.4-19.36 122.4-11.23 106-11.23 106-4.17 123.92-4.17Q123.82-3.32 123.44-2.55 123.06-1.78 122.49-1.22 121.91-0.66 121.18-0.33 120.45 0 119.64 0L119.64 0 104.8 0Q103.85 0 102.99-0.49 102.14-0.98 101.52-1.82 100.89-2.66 100.53-3.78 100.16-4.91 100.16-6.2L100.16-6.2ZM106-14.65L116.57-14.65 116.57-21.39 106-21.39 106-14.65ZM149.5 0L149.5 0Q149.59-0.85 149.97-1.61 150.35-2.37 150.92-2.94 151.5-3.52 152.23-3.85 152.96-4.17 153.77-4.17L153.77-4.17 162.73-4.17 162.73-10.11 149.94-16.48Q148.47-17.21 147.59-18.7 146.71-20.19 146.71-22.41L146.71-22.41 146.71-30.81Q146.71-32.1 147.07-33.24 147.42-34.38 148.04-35.22 148.67-36.06 149.5-36.54 150.33-37.01 151.28-37.01L151.28-37.01 164.78-37.01Q165.73-37.01 166.56-36.54 167.39-36.06 168.01-35.22 168.64-34.38 169-33.24 169.37-32.1 169.37-30.81L169.37-30.81 169.37-23.58 163.53-23.58 163.53-32.84 152.55-32.84 152.55-21.26 165.78-14.5Q166.42-14.18 166.93-13.62 167.44-13.06 167.81-12.32 168.17-11.57 168.37-10.67 168.56-9.77 168.56-8.79L168.56-8.79 168.56-6.15Q168.56-4.88 168.2-3.76 167.83-2.64 167.21-1.81 166.59-0.98 165.76-0.49 164.93 0 163.97 0L163.97 0 149.5 0ZM178.69 0L178.69-38.82 184.53-38.82 184.53-22.78Q185.21-24.1 186.23-24.83 187.24-25.56 188.43-25.56L188.43-25.56 195.78-25.56Q196.74-25.56 197.58-25.07 198.42-24.58 199.05-23.74 199.69-22.9 200.06-21.78 200.42-20.65 200.42-19.36L200.42-19.36 200.42-4.17 205.65-4.17Q205.55-3.32 205.17-2.55 204.79-1.78 204.23-1.22 203.67-0.66 202.94-0.33 202.2 0 201.42 0L201.42 0 199.25 0Q198.3 0 197.44-0.49 196.59-0.98 195.95-1.82 195.32-2.66 194.95-3.78 194.59-4.91 194.59-6.2L194.59-6.2 194.59-21.39 184.53-21.39 184.53 0 178.69 0ZM209.82-6.15L209.82-19.36Q209.82-20.65 210.19-21.79 210.55-22.92 211.17-23.77 211.8-24.61 212.63-25.09 213.46-25.56 214.41-25.56L214.41-25.56 234.87-25.56Q234.77-24.71 234.39-23.94 234.01-23.17 233.44-22.61 232.87-22.05 232.13-21.72 231.4-21.39 230.6-21.39L230.6-21.39 229.06-21.39Q229.52-21.04 229.97-20.51 230.42-19.97 230.78-19.26 231.13-18.55 231.34-17.71 231.55-16.87 231.55-15.89L231.55-15.89 231.55-6.15Q231.55-4.88 231.18-3.76 230.81-2.64 230.18-1.81 229.55-0.98 228.7-0.49 227.86 0 226.91 0L226.91 0 214.41 0Q213.46 0 212.63-0.49 211.8-0.98 211.17-1.81 210.55-2.64 210.19-3.76 209.82-4.88 209.82-6.15L209.82-6.15ZM215.65-4.17L225.71-4.17 225.71-21.39 215.65-21.39 215.65-4.17ZM246.75-2.73L246.78 6.96Q246.78 8.25 246.43 9.39 246.07 10.52 245.45 11.36 244.83 12.21 244 12.71 243.17 13.21 242.21 13.21L242.21 13.21 240.94 13.21 240.94-25.56 258.06-25.56Q259.01-25.56 259.84-25.07 260.67-24.58 261.31-23.74 261.94-22.9 262.31-21.78 262.67-20.65 262.67-19.36L262.67-19.36 262.67-4.17 267.82-4.17Q267.73-3.32 267.35-2.55 266.97-1.78 266.4-1.22 265.82-0.66 265.09-0.33 264.36 0 263.55 0L263.55 0 250.69 0Q249.51 0 248.49-0.74 247.46-1.49 246.75-2.73L246.75-2.73ZM246.75-4.2L256.84-4.2 256.84-21.39 246.75-21.39 246.75-4.2Z" opacity="1" transform="matrix(1,0,0,1,0,0)" fill="black" class="wordmark-text-0" id="SvgjsPath1223"></path></svg></g></svg></g></svg></g></svg></g><g><svg viewBox="0 0 130.71206903604082 204.22062345235895" height="204.22062345235895" width="130.71206903604082"><g><svg xmlns="http://www.w3.org/2000/svg" xmlns:xlink="http://www.w3.org/1999/xlink" version="1.1" x="0" y="0" viewBox="21.621 5.662 56.75800000000001 88.67699999999999" enable-background="new 0 0 100 100" xml:space="preserve" height="204.22062345235895" width="130.71206903604082" class="icon-icon-0" data-fill-palette-color="accent" id="SvgjsSvg1222"><g fill="white"><g fill="white"><g fill="white"><path fill-rule="evenodd" clip-rule="evenodd" d="M50.013 94.339L46.801 88.689C43.268 82.414 31.34 61.294 27.617 54.474 24.922 49.369 21.621 40.923 21.621 34.028 21.621 18.409 34.392 5.662 49.986 5.662 65.614 5.662 78.379 18.409 78.379 34.028 78.379 40.632 75.316 49.524 72.449 54.554 67.642 62.919 53.225 88.624 53.104 88.763zM50.013 12.767C38.304 12.767 28.714 22.331 28.714 34.028 28.714 39.213 31.34 46.339 33.898 51.066 36.841 56.48 45.175 71.367 49.987 79.823 54.621 71.513 62.819 57.008 66.226 50.994 68.566 46.851 71.193 39.149 71.193 34.028 71.193 28.313 68.974 23.072 64.984 19.007 60.958 15 55.629 12.768 49.987 12.768H50.013z" fill="white"></path></g></g><g fill="white"><g fill="white"><path fill-rule="evenodd" clip-rule="evenodd" d="M56.572 26.491L55.613 25.231 57.467 23.322C57.77 23.019 57.944 22.656 57.944 22.237 57.944 21.805 57.77 21.461 57.467 21.159L53.995 17.622A5.696 5.696 0 0 0 45.967 17.622L42.49 21.153C42.187 21.455 42.011 21.805 42.011 22.237 42.011 22.656 42.187 23.019 42.49 23.322L44.352 25.173 44.889 25.656 44.166 26.257C43.568 26.433 42.732 26.671 41.838 27.033 40.803 27.448 39.014 28.35 38.358 29.01 38.358 29.01 37.875 30.989 37.513 32.907V32.96C36.861 36.981 35.955 43.625 36.322 51.116H36.675V51.297C36.675 51.776 37.035 52.131 37.513 52.131H39.492C39.978 52.131 40.395 51.781 40.395 51.297V51.116H40.757S40.395 39.314 42.422 36.319V50.995S46.211 52.073 49.433 52.195L48.896 26.793V26.735H48.843C48.78 26.612 48.605 26.432 48.419 26.256L45.129 22.965C44.703 22.54 44.703 21.94 45.129 21.508L46.691 19.96C48.483 18.1 51.482 18.11 53.283 19.96L54.828 21.508C55.25 21.933 55.25 22.54 54.828 22.965L51.122 26.735C51.062 26.793 51.003 26.793 51.003 26.793L50.58 52.195C53.761 52.073 57.588 50.995 57.588 50.995V36.319C59.627 39.314 59.209 51.116 59.209 51.116H59.627V51.297A0.81 0.81 0 0 0 60.457 52.131H62.436C62.918 52.131 63.34 51.781 63.34 51.297V51.116H63.701C63.999 43.625 63.164 36.909 62.435 32.96V32.907C62.08 30.988 61.655 29.074 61.655 29.074 60.942 28.35 59.209 27.448 58.127 27.033A10 10 0 0 0 56.572 26.491" fill="white"></path></g></g></g></svg></g></svg></g></svg></g><defs><mask></mask></defs></svg><rect width="395.52" height="148.3038875140955" fill="black" stroke="none" visibility="hidden"></rect></g></mask><linearGradient x1="0.054" x2="0.941" y1="0.5" y2="0.5" id="3c462973-1728-4569-b0c0-7082c419c55f"><stop stop-color="#864d25" offset="0"></stop><stop stop-color="#f1c4b3" offset="0.498"></stop><stop stop-color="#864d25" offset="1"></stop></linearGradient><rect width="395.52" height="148.3038875140955" fill="url(#3c462973-1728-4569-b0c0-7082c419c55f)" mask="url(#790464fc-39e2-43f4-99b9-abdeb8ffb9f4)" data-fill-palette-color="accent"></rect></svg><rect width="395.52" height="148.3038875140955" fill="none" stroke="none" visibility="hidden"></rect></g></svg></g></svg>